<svg width="24" height="24" viewBox="0 0 24 24" fill="none" xmlns="http://www.w3.org/2000/svg">
<path fill-rule="evenodd" clip-rule="evenodd" d="M13.2002 4.25684H10.1504V4.40723C10.9566 4.77476 11.5529 5.28408 11.9385 5.93555C12.3241 6.58708 12.5166 7.33073 12.5166 8.16602C12.5166 9.03469 12.2976 9.80346 11.8594 10.4717C11.4386 11.1231 10.7895 11.6325 9.91309 12C9.0367 12.3507 7.93257 12.5263 6.60059 12.5264C6.14479 12.5264 5.70589 12.5013 5.28516 12.4512C4.88206 12.4011 4.50483 12.3345 4.1543 12.251C3.9792 12.3679 3.83061 12.5185 3.70801 12.7021C3.60296 12.8691 3.54986 13.0691 3.5498 13.3027C3.5498 13.6201 3.67265 13.8709 3.91797 14.0547C4.18093 14.2218 4.611 14.3057 5.20703 14.3057H9.20312C10.8859 14.3057 12.1046 14.6395 12.8584 15.3076C13.6297 15.9759 14.0156 16.9201 14.0156 18.1396C14.0156 19.0584 13.7789 19.8436 13.3057 20.4951C12.8499 21.1467 12.0781 21.6395 10.9912 21.9736C9.90439 22.3244 8.42332 22.5 6.54785 22.5C4.95258 22.5 3.67218 22.3746 2.70801 22.124C1.76159 21.8901 1.06905 21.539 0.630859 21.0713C0.210304 20.6203 0 20.0771 0 19.4424C6.99361e-05 18.7076 0.227993 18.1315 0.683594 17.7139C1.13939 17.2962 1.77075 17.0368 2.57715 16.9365V16.6611C1.92858 16.5442 1.42873 16.277 1.07812 15.8594C0.745046 15.425 0.578125 14.9235 0.578125 14.3555C0.578161 13.6706 0.841309 13.1439 1.36719 12.7764C1.91053 12.3922 2.50679 12.1423 3.15527 12.0254V11.9248C2.33143 11.5573 1.70879 11.0557 1.28809 10.4209C0.885085 9.76948 0.683617 9.0178 0.683594 8.16602C0.683594 7.28057 0.902558 6.50322 1.34082 5.83496C1.77908 5.16677 2.43701 4.64877 3.31348 4.28125C4.18995 3.9138 5.28596 3.73047 6.60059 3.73047C7.03865 3.73048 7.45042 3.75557 7.83594 3.80566C8.23905 3.83907 8.60741 3.89696 8.94043 3.98047V3.47949C8.94047 2.79464 9.12506 2.29395 9.49316 1.97656C9.86124 1.65921 10.3691 1.50005 11.0176 1.5H13.2002V4.25684ZM3.49707 17.4629C3.3218 17.6299 3.19018 17.8142 3.10254 18.0146C3.03253 18.2316 2.99807 18.4403 2.99805 18.6406C2.99805 19.1084 3.21701 19.4595 3.65527 19.6934C4.09355 19.9272 4.83892 20.0439 5.89062 20.0439H7.46777C8.51959 20.0439 9.26486 19.9272 9.70312 19.6934C10.1414 19.4595 10.3604 19.1084 10.3604 18.6406C10.3603 18.2566 10.1942 17.9641 9.86133 17.7637C9.54578 17.5632 9.00181 17.4629 8.23047 17.4629H3.49707ZM6.60059 6.18652C5.84678 6.18652 5.2763 6.34469 4.89062 6.66211C4.5051 6.96279 4.31255 7.40569 4.3125 7.99023V8.29102C4.3125 8.85888 4.50517 9.30174 4.89062 9.61914C5.2763 9.93656 5.84678 10.0957 6.60059 10.0957C7.37174 10.0957 7.94149 9.93651 8.30957 9.61914C8.69513 9.30173 8.8877 8.85895 8.8877 8.29102V7.99023C8.88765 7.40562 8.69519 6.96279 8.30957 6.66211C7.94149 6.34475 7.37173 6.18657 6.60059 6.18652Z" fill="white"/>
<path d="M18 6.75C19.5913 6.75 18.9353 9.56423 20.0605 10.6895C21.1858 11.8147 24 11.1587 24 12.75C24 14.3413 21.1858 13.6853 20.0605 14.8105C18.9353 15.9358 19.5913 18.75 18 18.75C16.4087 18.75 17.0647 15.9358 15.9395 14.8105C14.8142 13.6853 12 14.3413 12 12.75C12 11.1587 14.8142 11.8147 15.9395 10.6895C17.0647 9.56423 16.4087 6.75 18 6.75Z" fill="white"/>
</svg>
